<svg version="1.2" xmlns="http://www.w3.org/2000/svg" viewBox="0 0 754 47" width="754" height="47">
    <title>Northwestern README Lockup (Dark)</title>
    <style>
        .s0 { fill: rgba(182,172,209,1); }
    </style>
    <path id="Northwestern Laravel Starter" class="s0" aria-label="Northwestern Laravel Starter Lockup"  d="m37.3 6v24l-15.8-24h-7v35h7v-24l15.8 24h7v-35zm40.7 21.1c0-8.7-6.3-14.3-14.3-14.3-8 0-14.2 5.6-14.2 14.3 0 8.8 6 14.4 14 14.4 8.1 0 14.5-5.7 14.5-14.4zm-21.4 0c0-5.5 3.3-8.2 7-8.2 3.7 0 7.2 2.7 7.2 8.2 0 5.5-3.6 8.3-7.3 8.3-3.7-0.1-6.9-2.8-6.9-8.3zm33.5 0.1c0-5.4 2.5-7 6.7-7h1.8v-7.3c-3.8 0-6.7 1.8-8.5 4.7v-4.3h-7v27.7h7zm14.3 5.2c0 6.3 3.6 8.6 8.9 8.6h4.4v-5.9h-3.3c-2.2 0-2.9-0.8-2.9-2.6v-13.5h6.2v-5.7h-6.2v-6.9h-7.1v6.9h-3.3v5.7h3.3zm18.3 8.6h7v-15.3c0-4.4 2.5-6.8 6.3-6.8 3.7 0 6.1 2.4 6.1 6.8v15.3h7v-16.2c0-7.7-4.5-11.9-10.8-11.9-3.7 0-6.8 1.5-8.6 3.9v-12.8h-7zm38.1 0h7.6l5.1-19.3 5 19.4h7.6l8.1-27.8h-6.7l-4.9 21.1-5.2-21.1h-7.4l-5.3 21.2-4.9-21.1h-7.1zm49-22.4c3.6-0.1 6.5 2.2 6.6 5.9h-13.1c0.5-3.8 3.1-6 6.5-6zm13.1 13.7h-7.5c-0.9 1.9-2.5 3.4-5.5 3.4-3.5 0-6.4-2.3-6.7-6.4h20.3c0.1-0.9 0.1-1.8 0.1-2.7 0-8.3-5.6-13.7-13.6-13.7-8.2 0-13.9 5.5-13.9 14.3 0 8.7 5.8 14.3 13.9 14.3 6.9 0 11.4-4.1 12.9-9.2zm27.4 0.8c-0.3-10.1-15.6-7-15.6-12 0-1.6 1.3-2.7 3.9-2.7 2.8 0 4.5 1.5 4.7 3.6h6.7c-0.4-5.5-4.5-9.1-11.1-9.1-6.9 0-11 3.7-11 8.3 0 10.1 15.6 7 15.6 11.9 0 1.6-1.5 2.9-4.2 2.9-2.8 0-4.8-1.6-5-3.7h-7.1c0.3 5.1 5.2 9.2 12.2 9.2 6.7 0 10.9-3.6 10.9-8.4zm6.8-0.7c0 6.4 3.5 8.6 8.8 8.6h4.4v-5.8l-3.2-0.1c-2.2 0-3-0.8-3-2.6v-13.4h6.2v-5.8h-6.2v-6.8h-7v6.8h-3.3v5.8h3.3zm30.2-13.8c3.6 0 6.5 2.3 6.6 5.9h-13.1c0.5-3.8 3.1-5.9 6.5-5.9zm13.1 13.7h-7.5c-0.9 1.8-2.6 3.3-5.6 3.3-3.5 0-6.2-2.2-6.6-6.4h20.3c0.1-0.8 0.1-1.8 0.1-2.7 0-8.2-5.6-13.7-13.6-13.7-8.2 0-13.9 5.6-13.9 14.3 0 8.8 5.8 14.4 13.9 14.4 6.8 0 11.4-4.1 12.9-9.2zm12.9-5.1c0-5.4 2.5-7 6.6-7h1.9v-7.3c-3.9 0-6.8 1.8-8.5 4.7v-4.3h-7v27.7h7zm32.6 13.8h7v-16.3c0-7.6-4.6-11.8-11.1-11.8-3.5 0-6.5 1.5-8.4 3.8v-3.4h-7v27.7h7v-15.3c0-4.5 2.5-6.9 6.3-6.9 3.7 0 6.2 2.5 6.2 6.9zm25.5-34.9v34.9h18.5v-5.5h-11.5v-29.4zm21.1 20.9c0 8.7 5.6 14.5 12.6 14.5 4.4 0 7.6-2.1 9.2-4.5v4h7.1v-27.7h-7.1v3.9c-1.6-2.3-4.7-4.4-9.1-4.4-7.1 0-12.7 5.6-12.7 14.2zm21.8 0.1c0 5.3-3.5 8.2-7.3 8.2-3.7 0-7.3-3-7.3-8.3 0-5.2 3.6-8 7.3-8 3.8 0 7.3 2.9 7.3 8.2zm21 0c0-5.4 2.5-6.9 6.6-6.9h1.9v-7.4c-3.9 0-6.8 1.9-8.5 4.7v-4.3h-7v27.7h7zm11.3-0.1c0 8.6 5.7 14.4 12.7 14.4 4.3 0 7.5-2.1 9.1-4.5v4h7.1v-27.7h-7.1v4c-1.6-2.3-4.6-4.4-9.1-4.4-7 0-12.7 5.5-12.7 14.2zm21.8 0.1c0 5.2-3.5 8.1-7.3 8.1-3.7 0-7.3-3-7.3-8.2 0-5.3 3.6-8.1 7.3-8.1 3.8 0 7.3 2.9 7.3 8.2zm11-13.9l10.2 27.7h8.5l10.3-27.7h-7.5l-7 21.3-7-21.3zm44.8 5.3c3.6 0 6.5 2.3 6.6 6h-13.1c0.5-3.8 3.2-6 6.5-6zm13.2 13.7h-7.6c-0.9 1.9-2.5 3.4-5.5 3.4-3.6 0-6.4-2.3-6.7-6.4h20.3c0.1-0.9 0.2-1.8 0.2-2.7 0-8.3-5.7-13.7-13.7-13.7-8.2 0-13.9 5.5-13.9 14.3 0 8.7 5.9 14.3 13.9 14.3 6.9 0 11.5-4.1 13-9.2zm5.8 8.7h7v-37h-7zm50.2-10.1c0-12.3-17.9-8.4-17.9-15.4 0-2.8 2-4.2 4.8-4.1 3 0.1 4.8 1.9 5 4.2l7.7-0.1c-0.5-6.2-5.4-9.9-12.5-9.9-7.2 0-12.3 3.8-12.3 10.1-0.1 12.7 17.9 8.1 17.9 15.7 0 2.5-1.9 4.2-5.2 4.2-3.3 0-5.1-1.8-5.3-4.6h-7.5c0.1 6.6 5.7 10.4 12.9 10.4 8 0 12.4-5 12.4-10.5zm7.1 1.5c0 6.4 3.6 8.6 8.9 8.6h4.4v-5.9h-3.3c-2.2 0-2.9-0.8-2.9-2.6v-13.4h6.2v-5.8h-6.2v-6.8l-7.1-0.1v6.9h-3.3v5.8h3.3zm16.5-5.4c0 8.7 5.6 14.4 12.6 14.4 4.4 0 7.6-2.1 9.2-4.5v4.1h7.1v-27.8l-7.1 0.1v3.9c-1.6-2.3-4.7-4.4-9.1-4.4-7.1 0-12.7 5.6-12.7 14.2zm21.8 0.1c0 5.3-3.5 8.2-7.3 8.2-3.8 0-7.3-3-7.3-8.3 0-5.2 3.5-8 7.3-8 3.8 0 7.3 2.9 7.3 8.1zm20.9 0.1c0-5.4 2.5-7 6.7-7h1.8v-7.3c-3.8 0-6.7 1.8-8.5 4.7v-4.3h-7v27.7h7zm14.3 5.2c0 6.3 3.6 8.6 8.9 8.6h4.4v-5.9h-3.3c-2.2 0-2.9-0.8-2.9-2.7v-13.4h6.2v-5.7h-6.2v-6.9h-7.1v6.9h-3.3v5.7h3.3zm30.2-13.8c3.6 0 6.5 2.3 6.6 6h-13.1c0.5-3.8 3.2-6 6.5-6zm13.2 13.7h-7.6c-0.9 1.9-2.5 3.4-5.5 3.4-3.5 0-6.3-2.3-6.7-6.4h20.3c0.1-0.9 0.2-1.8 0.2-2.7 0-8.3-5.7-13.7-13.7-13.7-8.2 0-13.9 5.5-13.9 14.3 0 8.7 5.9 14.3 13.9 14.3 6.9 0 11.5-4.1 13-9.2zm12.8-5.1c0-5.3 2.5-6.9 6.6-6.9h1.9v-7.4c-3.9 0-6.8 1.9-8.5 4.7v-4.3h-7v27.7h7z"/>
</svg>
